<?xml version="1.0" standalone="no"?>
<!DOCTYPE svg PUBLIC "-//W3C//DTD SVG 1.1//EN" "http://www.w3.org/Graphics/SVG/1.1/DTD/svg11.dtd" >
<svg xmlns="http://www.w3.org/2000/svg" xmlns:xlink="http://www.w3.org/1999/xlink" version="1.1">
<metadata></metadata>
<defs>
<font id="uni_sans_bookregular" horiz-adv-x="1034" >
<font-face units-per-em="2048" ascent="1548" descent="-500" />
<missing-glyph horiz-adv-x="489" />
<glyph unicode="&#xfb01;" horiz-adv-x="976" d="M129 0v1114q0 165 100 253.5t258 90.5v-115q-109 0 -176 -60.5t-67 -168.5v-237h229v-115h-229v-762h-115zM662 1321q0 38 27 65t65 27t65 -27t27 -65t-27 -65t-65 -27t-65 27t-27 65zM700 0v1061h115v-1061h-115z" />
<glyph unicode="&#xfb02;" horiz-adv-x="1028" d="M129 0v1114q0 165 100 253.5t258 90.5v-115q-109 0 -176 -60.5t-67 -168.5v-237h229v-115h-229v-762h-115zM684 328v1124h115v-1124q0 -222 209 -222v-114q-155 0 -239.5 88.5t-84.5 247.5z" />
<glyph horiz-adv-x="0" />
<glyph horiz-adv-x="682" />
<glyph unicode=" "  horiz-adv-x="489" />
<glyph unicode="&#x09;" horiz-adv-x="489" />
<glyph unicode="&#xa0;" horiz-adv-x="489" />
<glyph unicode="!" horiz-adv-x="600" d="M199 86q0 41 28.5 69.5t69.5 28.5t69.5 -28.5t28.5 -69.5t-28.5 -69.5t-69.5 -28.5t-69.5 28.5t-28.5 69.5zM236 381v1069h120v-1069h-120z" />
<glyph unicode="&#x22;" horiz-adv-x="712" d="M143 983v467h123l-35 -467h-88zM426 983v467h123l-37 -467h-86z" />
<glyph unicode="#" horiz-adv-x="1464" d="M41 455l25 114h331l97 326h-369l25 117h378l129 436h129l-129 -436h328l129 436h131l-131 -436h324l-31 -117h-330l-94 -326h369l-29 -114h-377l-133 -457h-129l135 457h-330l-133 -457h-129l135 457h-321zM526 569h328l96 326h-327z" />
<glyph unicode="$" horiz-adv-x="1165" d="M51 256l111 49q40 -89 138 -143.5t220 -65.5v611q-45 10 -76.5 17.5t-73.5 19.5t-70.5 24t-63 30t-57.5 38.5t-45.5 48t-35 59.5t-19.5 72.5t-5 87.5q3 84 40.5 153t100 115t140 73t165.5 34v209h101v-209q156 -9 284.5 -80.5t181.5 -192.5l-108 -49q-38 89 -137 142 t-221 61v-557q47 -9 80.5 -16.5t77 -20t75 -26t67.5 -33t60.5 -42.5t48.5 -54t37.5 -67.5t20.5 -83t4 -100.5q-4 -88 -44.5 -160t-106 -118.5t-147 -74t-173.5 -32.5v-208h-101v208q-158 11 -287 84t-182 197zM193 1098q-3 -54 13 -96.5t43 -69.5t74 -49t90 -34.5t107 -25.5 v537q-133 -11 -225.5 -79t-101.5 -183zM621 96q141 10 240.5 79.5t109.5 189.5q5 63 -11.5 112.5t-45.5 81t-79.5 57t-98 39.5t-115.5 29v-588z" />
<glyph unicode="%" horiz-adv-x="1529" d="M70 1063q0 176 84.5 281.5t218.5 105.5q142 0 222.5 -103t80.5 -288q0 -179 -84.5 -284t-218.5 -105q-146 0 -224.5 101t-78.5 292zM188 -82l1022 1618l101 -61l-1020 -1618zM190 1063q0 -145 44 -210t139 -65q184 0 184 271q0 274 -186 274q-93 0 -137 -64.5t-44 -205.5 zM860 385q0 178 84 282.5t219 104.5q141 0 221 -102.5t80 -288.5q0 -178 -84 -282.5t-217 -104.5q-147 0 -225 100.5t-78 290.5zM979 385q0 -145 44 -209.5t140 -64.5q183 0 183 270q0 139 -48.5 207.5t-138.5 68.5q-93 0 -136.5 -65t-43.5 -207z" />
<glyph unicode="&#x26;" horiz-adv-x="1288" d="M102 399q0 46 10.5 87.5t24.5 73t42.5 64t50.5 53.5t62.5 49.5t64.5 43.5t71 43q-54 63 -84.5 103.5t-60 106t-29.5 124.5q0 146 105 232.5t253 86.5q130 0 226 -83.5t96 -213.5q0 -42 -10 -80t-25 -67t-42 -58.5t-50 -49t-61.5 -44t-63.5 -38.5t-68 -37l351 -369 l114 192l101 -49l-136 -221l228 -260h-156l-137 156q-93 -124 -197 -188t-245 -64q-186 0 -310.5 112t-124.5 295zM225 403q0 -134 95 -217.5t235 -83.5q189 0 346 224l-399 411q-52 -30 -80 -48t-71.5 -52.5t-66.5 -65t-41 -75t-18 -93.5zM377 1151q0 -36 14 -74.5 t44.5 -82t48 -66t53.5 -64.5q41 21 63 33t60.5 35.5t60.5 45t46 50t35 62t11 71.5q0 88 -59 144.5t-150 56.5q-95 0 -161 -60t-66 -151z" />
<glyph unicode="'" horiz-adv-x="415" d="M139 983v467h123l-24 -467h-99z" />
<glyph unicode="(" horiz-adv-x="532" d="M119 698q0 243 74.5 482t209.5 428l99 -66q-128 -161 -195 -390t-67 -454q0 -230 67.5 -434t200.5 -414l-96 -61q-141 196 -217 435t-76 474z" />
<glyph unicode=")" horiz-adv-x="532" d="M25 -209q128 162 197 391.5t69 452.5q0 466 -266 887l96 61q139 -193 216 -451t77 -497q0 -243 -75 -481.5t-210 -427.5z" />
<glyph unicode="*" horiz-adv-x="858" d="M45 1145l29 94l303 -98v309h96v-311l295 98l31 -98l-295 -92l186 -254l-76 -60l-192 256l-182 -256l-82 60l186 258z" />
<glyph unicode="+" horiz-adv-x="1271" d="M115 639v119h473v461h117v-461h454v-119h-454v-465h-117v465h-473z" />
<glyph unicode="," horiz-adv-x="550" d="M131 -283l135 467h144l-158 -467h-121z" />
<glyph unicode="-" horiz-adv-x="681" d="M88 555v119h506v-119h-506z" />
<glyph unicode="." horiz-adv-x="471" d="M143 86q0 41 29 69.5t70 28.5t69.5 -28.5t28.5 -69.5t-28.5 -69.5t-69.5 -28.5t-70 28.5t-29 69.5z" />
<glyph unicode="/" horiz-adv-x="757" d="M18 -37l623 1561l107 -37l-621 -1561z" />
<glyph unicode="0" horiz-adv-x="1230" d="M94 399v660q0 105 46.5 188t123 132.5t167.5 75.5t187 26q76 0 149 -15.5t141 -49.5t119.5 -82.5t82.5 -119.5t31 -155v-660q0 -84 -31 -154.5t-82.5 -119t-119.5 -82.5t-141.5 -50t-148.5 -16q-96 0 -187 26t-167.5 76t-123 133t-46.5 187zM215 399q0 -80 36.5 -140.5 t97 -94t128.5 -50t141 -16.5t140.5 16.5t128 50t97 94t36.5 140.5v660q0 80 -36.5 141t-97 94.5t-128 49.5t-140.5 16t-141 -16t-128.5 -49.5t-97 -94t-36.5 -141.5v-660z" />
<glyph unicode="1" horiz-adv-x="665" d="M43 1104l330 348h123v-1452h-119v1286l-246 -254z" />
<glyph unicode="2" horiz-adv-x="1128" d="M59 94l721 686q68 65 105.5 134t42 130.5t-18 117.5t-69 97.5t-116.5 67.5t-155 29q-137 4 -243.5 -54.5t-151.5 -160.5l-106 47q58 137 194.5 213.5t308.5 71.5q109 -3 201 -38.5t154 -92.5t94 -134.5t29 -160.5t-49 -174.5t-132 -174.5l-604 -575h785v-121h-951z" />
<glyph unicode="3" horiz-adv-x="1183" d="M39 246l108 53q34 -68 108 -116t162.5 -67.5t184 -11t173 42t127.5 102.5t50 161q0 166 -93.5 245.5t-266.5 77.5h-121v113h121q295 0 295 244q0 82 -41.5 142.5t-106 90t-144.5 36t-155.5 -10.5t-140 -58t-96.5 -100l-103 53q40 83 124.5 139.5t184 78t205.5 9.5 t192.5 -55t142 -128t55.5 -197q0 -205 -160 -297q229 -81 229 -385q-2 -125 -66 -219.5t-162 -143.5t-219 -62.5t-234 11t-209.5 90t-143.5 162.5z" />
<glyph unicode="4" horiz-adv-x="1101" d="M25 506l780 946h143v-965h121v-108h-121v-375h-121v375h-708zM158 487h669l4 824z" />
<glyph unicode="5" horiz-adv-x="1196" d="M72 246l108 53q34 -68 107 -115t160.5 -64.5t181 -7t170 46t125.5 105.5t49 162v90q0 77 -32 136t-88 94t-125.5 52t-149.5 17q-111 0 -202 -21t-192 -69l-63 -4v729h897v-121h-776v-459q176 73 336 70q98 -1 187 -26t163.5 -74t119.5 -132t46 -190q0 -8 0.5 -28t0.5 -37 t-1 -29q-1 -94 -37.5 -173t-97 -131t-140 -86t-165.5 -44.5t-174.5 0t-166 41.5t-141.5 86.5t-100 128.5z" />
<glyph unicode="6" horiz-adv-x="1265" d="M109 406v641q0 102 46 184.5t122.5 133.5t171.5 77.5t198 25.5q163 0 297 -66.5t195 -189.5l-109 -55q-44 93 -148.5 143t-234.5 50q-82 0 -155.5 -19.5t-133 -56.5t-94.5 -96.5t-35 -133.5v-311q66 95 177 138.5t241 43.5q103 -1 196 -28t168.5 -77.5t120 -132 t44.5 -183.5v-88q0 -82 -29.5 -151.5t-79.5 -118.5t-118 -84t-144.5 -51.5t-157.5 -16.5q-82 -1 -159.5 15.5t-145.5 51t-119.5 84t-82 119.5t-31.5 152zM229 408q0 -74 35 -133.5t94.5 -96.5t133 -56.5t155.5 -19.5q108 0 198.5 33t150 104.5t59.5 168.5v84q0 74 -34 133 t-91.5 96t-130 56.5t-152.5 19.5q-110 0 -203 -32.5t-154 -103.5t-61 -169v-84z" />
<glyph unicode="7" horiz-adv-x="1046" d="M53 1331v121h914l43 -90l-779 -1362h-137l760 1331h-801z" />
<glyph unicode="8" horiz-adv-x="1193" d="M49 410q0 131 63.5 234.5t178.5 139.5v7q-84 34 -129 113.5t-45 176.5q1 93 39.5 168t103 121.5t144 71t167.5 24.5h39q88 0 168 -24.5t145 -70.5t103.5 -121.5t38.5 -168.5q0 -97 -45 -176.5t-129 -113.5v-7q115 -36 179.5 -139.5t64.5 -234.5q-2 -105 -47.5 -189.5 t-119.5 -137t-166 -80.5t-192 -28h-39q-100 0 -192 28t-165.5 80.5t-118.5 137t-46 189.5zM168 412q0 -65 24.5 -119t64.5 -90t93 -60.5t108.5 -35.5t112.5 -11h39q57 0 112.5 11t109 35.5t93.5 60.5t64.5 90t24.5 119q0 76 -22.5 133t-58.5 90.5t-90 54.5t-109 28t-124 7 h-39q-69 0 -123.5 -7t-108.5 -28t-90.5 -54.5t-58.5 -90.5t-22 -133zM233 1081q0 -61 20 -106t50.5 -70.5t77.5 -40.5t90.5 -19.5t99.5 -4.5h39q56 0 99.5 4.5t90.5 19.5t77.5 40.5t50.5 70.5t20 106q0 131 -99 201t-239 70h-39q-140 0 -239 -70t-99 -201z" />
<glyph unicode="9" horiz-adv-x="1247" d="M72 956v88q0 102 44.5 184t119.5 133t168.5 78t195.5 27q103 1 198 -26t171 -77.5t122.5 -133.5t47.5 -185v-641q0 -102 -46 -184.5t-122.5 -133.5t-172 -77.5t-198.5 -25.5q-163 0 -296.5 66.5t-194.5 189.5l108 55q44 -93 148.5 -143t234.5 -50q82 0 155.5 19.5 t133 56.5t94.5 96.5t35 133.5v311q-66 -95 -177 -138.5t-241 -43.5q-103 1 -196 28t-168 77.5t-119.5 132t-44.5 183.5zM193 958q0 -97 59 -168t149.5 -104t198.5 -33q110 0 203 32.5t154 103.5t61 169v84q0 74 -35 133.5t-94.5 96.5t-133 56.5t-155.5 19.5 q-108 0 -198.5 -33t-149.5 -104.5t-59 -168.5v-84z" />
<glyph unicode=":" horiz-adv-x="479" d="M143 117q0 41 29 69.5t70 28.5t69.5 -28.5t28.5 -69.5t-28.5 -70t-69.5 -29t-70 29t-29 70zM143 891q0 41 29 69.5t70 28.5t69.5 -28.5t28.5 -69.5t-28.5 -69.5t-69.5 -28.5t-70 28.5t-29 69.5z" />
<glyph unicode=";" horiz-adv-x="507" d="M88 -283l119 467h160l-158 -467h-121zM154 860q0 41 28.5 69.5t69.5 28.5t69.5 -28.5t28.5 -69.5t-28.5 -69.5t-69.5 -28.5t-69.5 28.5t-28.5 69.5z" />
<glyph unicode="&#x3c;" horiz-adv-x="970" d="M119 571v99l721 430v-137l-588 -342l588 -338v-136z" />
<glyph unicode="=" horiz-adv-x="1146" d="M160 424v113h833v-113h-833zM160 707v110h833v-110h-833z" />
<glyph unicode="&#x3e;" horiz-adv-x="983" d="M154 147v136l587 338l-587 342v137l720 -430v-99z" />
<glyph unicode="?" horiz-adv-x="974" d="M33 1294q44 55 105.5 94.5t130 59.5t142.5 23t143.5 -11t132 -48t109 -83t73.5 -119.5t26 -154.5q-1 -100 -35.5 -179t-94.5 -131t-132 -84t-158 -47l-16 -333h-101l-12 430q113 1 210.5 40.5t160.5 120t61 185.5q-1 70 -28.5 127t-73.5 92t-103.5 57t-120.5 23 t-123 -11.5t-114 -44t-90 -77.5h-2zM313 88q0 41 29.5 69.5t69.5 28.5t67 -28.5t27 -69.5t-27 -68.5t-67 -27.5t-69.5 27.5t-29.5 68.5z" />
<glyph unicode="@" horiz-adv-x="1583" d="M82 729q0 154 58 292.5t157 238t237 157.5t291 58q193 0 350 -79t246.5 -217t89.5 -307q0 -121 -41.5 -233t-108 -189.5t-151 -124t-168.5 -46.5q-55 0 -89.5 35t-34.5 100h-5q-45 -56 -116 -95.5t-144 -39.5q-129 0 -199.5 83.5t-70.5 210.5q0 85 20.5 168.5t62 158.5 t97.5 132.5t132 91t161 33.5q73 0 130.5 -40t82.5 -126h4l49 127h121l-194 -581q-23 -71 -23 -97q0 -53 51 -53q68 0 145 73.5t129 188.5t52 223q0 145 -81 262.5t-211.5 180.5t-281.5 63q-179 0 -327 -91t-230 -239.5t-82 -318.5q0 -132 51 -252.5t137 -208.5t205.5 -140 t250.5 -52q110 0 206 37l47 -86q-120 -47 -253 -47q-160 0 -300.5 59t-239.5 159.5t-155.5 238.5t-56.5 292zM496 578q0 -84 49 -137.5t127 -53.5q67 0 132 46.5t109.5 116t71.5 149t27 145.5q0 100 -40.5 154.5t-123.5 54.5q-68 1 -127 -29t-99.5 -80t-69.5 -113.5 t-42.5 -128t-13.5 -124.5z" />
<glyph unicode="A" horiz-adv-x="1267" d="M20 0l521 1450h176l524 -1450h-127l-174 483h-623l-170 -483h-127zM360 604h537l-268 756z" />
<glyph unicode="B" horiz-adv-x="1290" d="M162 0v1452h551q116 0 207.5 -39.5t148.5 -124.5t57 -205q0 -222 -155 -311q121 -42 173 -135.5t52 -233.5q-2 -109 -39.5 -188.5t-104 -125.5t-151 -67.5t-190.5 -21.5h-549zM283 121h430h22q70 0 124 11q63 13 113.5 44.5t76.5 89t26 140.5q-1 164 -93 234 q-90 69 -259 69h-10h-430v-588zM283 829h430q136 0 216.5 61.5t80.5 192.5q0 130 -81.5 189t-215.5 59h-430v-502z" />
<glyph unicode="C" horiz-adv-x="1179" d="M98 426v598q0 93 36.5 170.5t98 130.5t142.5 87t169 46q48 6 96 7q40 -1 82 -5q90 -10 169.5 -40t144.5 -86t101 -130l-109 -53v-2q-35 72 -110.5 119.5t-164.5 65.5q-54 11 -110 10q-37 0 -75 -4q-96 -12 -172.5 -48.5t-126.5 -106.5t-50 -161v-598q0 -91 50 -161 t127 -107q76 -36 172 -48q38 -5 75 -4q56 0 110 10q89 18 164.5 65.5t110.5 119.5l109 -53q-36 -73 -101 -128.5t-144 -86.5q-80 -31 -170 -41q-45 -5 -89.5 -5.5t-88.5 5.5q-88 10 -169 44t-142.5 86t-98 131t-36.5 173z" />
<glyph unicode="D" horiz-adv-x="1269" d="M162 0v1450h483q106 0 200.5 -25t172.5 -74.5t124 -133t46 -191.5v-604q0 -86 -30.5 -157.5t-82 -119.5t-122 -81.5t-147.5 -48.5t-161 -15h-483zM283 121h362q65 0 125 10.5t114.5 34t94.5 57.5t64 85.5t24 113.5v604q0 78 -35.5 138t-96.5 95t-134.5 52.5t-155.5 17.5 h-362v-1208z" />
<glyph unicode="E" horiz-adv-x="1171" d="M162 0v1452h909v-121h-788v-545h727v-122h-727v-543h788v-121h-909z" />
<glyph unicode="F" horiz-adv-x="1118" d="M162 0v1450h907v-121h-786v-586h690v-120h-690v-623h-121z" />
<glyph unicode="G" horiz-adv-x="1337" d="M90 426v608q0 93 36.5 170.5t97.5 130t142 87t168 46.5q47 6 94 6q41 0 84 -5q90 -10 169 -40.5t144 -86.5t101 -130l-108 -53q-35 72 -110 119.5t-164 65.5q-54 10 -110 10q-36 0 -74 -4q-95 -12 -172 -48.5t-127 -106.5t-50 -161v-608q0 -78 36.5 -141.5t96 -102 t135.5 -59.5t155 -21t155 21t135.5 59.5t96 102t36.5 141.5v180h-445v121h566v-301q0 -108 -47 -195t-123 -140.5t-174 -83t-200 -29.5t-200 29.5t-174 83t-123 140.5t-47 195z" />
<glyph unicode="H" horiz-adv-x="1409" d="M160 0v1450h121v-666h845v666h121v-1450h-121v664h-845v-664h-121z" />
<glyph unicode="I" horiz-adv-x="475" d="M164 0v1450h121v-1450h-121z" />
<glyph unicode="J" horiz-adv-x="1185" d="M-2 332l119 22q18 -89 84 -152t153 -89q73 -22 153 -22q15 0 31 1q97 5 178 41t134 109.5t53 171.5v915h-483v121h604v-1036q0 -99 -40.5 -181t-107 -135t-152.5 -84.5t-178 -37.5q-21 -1 -42 -1q-70 0 -140 15q-91 20 -166 62.5t-129 115t-71 164.5z" />
<glyph unicode="K" horiz-adv-x="1245" d="M162 0v1450h121v-797l811 797h155l-698 -698l694 -752h-155l-625 666l-182 -183v-483h-121z" />
<glyph unicode="L" horiz-adv-x="1021" d="M164 0v1450h121v-1329h725v-121h-846z" />
<glyph unicode="M" horiz-adv-x="1632" d="M156 0v1450h176l485 -1096l483 1096h177v-1450h-121v1282l-482 -1083h-114l-484 1083v-1282h-120z" />
<glyph unicode="N" horiz-adv-x="1411" d="M162 0v1450h147l819 -1317v1317h121v-1450h-180l-786 1264v-1264h-121z" />
<glyph unicode="O" horiz-adv-x="1396" d="M123 410v632q0 107 49.5 194t130 140.5t184 82.5t211 29t211 -29t184 -82.5t130 -140.5t49.5 -194v-632q0 -107 -49.5 -194t-130 -140.5t-184 -82.5t-211 -29t-211 29t-184 82.5t-130 140.5t-49.5 194zM244 410q0 -70 31 -128.5t83.5 -96.5t120.5 -64.5t143 -32.5 q38 -3 75 -2l75 2q75 6 143 32.5t120.5 64.5t84 96.5t31.5 128.5v632q0 83 -39 147t-105 102t-145.5 57.5t-167.5 19.5q-87 -1 -165.5 -21t-143.5 -58t-103 -102t-38 -145v-632z" />
<glyph unicode="P" horiz-adv-x="1261" d="M164 0v1450h547q103 0 189.5 -31t142.5 -83.5t95 -120.5q40 -67 48 -143q4 -38 4 -76t-4 -75q-8 -75 -47.5 -143t-95 -120.5t-141.5 -83.5t-189 -31h-428v-543h-121zM285 664h426q100 0 177.5 37t117.5 96t58 131q9 35 9 69q0 37 -10 73q-19 71 -59.5 129.5t-117.5 94.5 q-75 35 -170 35h-5h-426v-665z" />
<glyph unicode="Q" horiz-adv-x="1398" d="M125 416v618q0 107 49.5 194t130 140.5t183.5 82.5t210.5 29t210.5 -29t183.5 -82.5t130 -140.5t49.5 -194v-618q0 -160 -107 -273l97 -125l-101 -59l-86 111q-61 -38 -135.5 -62t-151.5 -33q-44 -5 -89 -5q-34 0 -69 3q-81 7 -154 28t-137.5 59t-111.5 88t-74.5 119 t-27.5 149zM246 416q0 -78 38 -141.5t100 -102.5t143 -60.5t164 -21.5q2 -1 4 -1q81 0 161 19q82 20 145 58l-122 162l96 65l115 -151q61 74 61 174v618q0 83 -38.5 147t-104 102t-145 57.5t-167.5 19.5q-87 -1 -165.5 -21t-143.5 -58t-103 -102t-38 -145v-618z" />
<glyph unicode="R" horiz-adv-x="1277" d="M162 0v1450h547q105 0 190.5 -24t151.5 -73.5t103.5 -132t39.5 -192.5q0 -109 -38.5 -191t-106.5 -129.5t-152.5 -70.5t-185.5 -23h-4l485 -614h-145l-488 614h-276v-614h-121zM283 725h428q177 0 269.5 69.5t92.5 233.5q0 301 -346 301h-16h-428v-604z" />
<glyph unicode="S" horiz-adv-x="1218" d="M90 256l109 49h2q31 -71 103 -121t158 -72q72 -18 148 -18q16 0 33 2q95 4 173.5 33t132.5 90.5t61 145.5q1 16 1 31q-1 53 -17 96q-22 55 -63.5 87t-99.5 57t-124.5 38.5t-137.5 30.5t-138 32.5t-126.5 45.5t-103 68.5t-67.5 102.5q-21 57 -21 130v18q3 76 33.5 140 t81 107.5t116.5 75t142 43.5q72 11 146 10h6q77 0 152.5 -20t140 -52.5t116 -84t79.5 -115.5l-108 -49q-31 69 -101 117q-71 48 -155 70q-70 18 -144 18h-32q-92 -4 -168.5 -33t-128.5 -89t-58 -142q-1 -11 0 -21q-1 -59 23 -102q28 -51 81 -79.5t122 -47.5t146.5 -34 t154.5 -32t146 -47.5t121.5 -75.5t80.5 -121q24 -65 24 -148v-30q-5 -87 -45 -158.5t-103.5 -117.5t-145.5 -74t-170 -34q-26 -2 -51 -2q-61 0 -125 10q-90 14 -167 48.5t-139 92t-94 131.5z" />
<glyph unicode="T" horiz-adv-x="1128" d="M20 1331v121h1088v-121h-483v-1331h-121v1331h-484z" />
<glyph unicode="U" horiz-adv-x="1400" d="M156 424v1026h120v-1026q0 -80 36.5 -144t96 -103.5t135.5 -61t155 -21.5t155 21.5t135.5 61t96 103.5t36.5 144v1026h121v-1026q0 -144 -80.5 -249.5t-201.5 -153t-261.5 -47.5t-261.5 47.5t-201.5 153t-80.5 249.5z" />
<glyph unicode="V" horiz-adv-x="1243" d="M6 1452h127l485 -1360l482 1360h127l-520 -1450h-179z" />
<glyph unicode="W" horiz-adv-x="1892" d="M8 1450h127l381 -1360l369 1170h116l369 -1170l381 1360h127l-420 -1450h-176l-338 1069l-340 -1069h-176z" />
<glyph unicode="X" horiz-adv-x="1206" d="M27 0l497 723l-493 727h141l424 -621l422 621h143l-493 -727l495 -723h-145l-422 629l-424 -629h-145z" />
<glyph unicode="Y" horiz-adv-x="1171" d="M20 1450h142l424 -762l422 762h143l-506 -883v-567h-121v567z" />
<glyph unicode="Z" horiz-adv-x="1153" d="M43 92l903 1237h-866v121h995l43 -92l-903 -1237h883v-121h-1018z" />
<glyph unicode="[" horiz-adv-x="524" d="M152 -272v1818h307v-104h-185v-1610h185v-104h-307z" />
<glyph unicode="\" horiz-adv-x="757" d="M10 1487l109 37l622 -1561l-110 -37z" />
<glyph unicode="]" horiz-adv-x="520" d="M55 -172h185v1622h-185v98h307v-1818h-307v98z" />
<glyph unicode="^" horiz-adv-x="1239" d="M154 870l409 580h94l424 -580h-143l-328 463l-315 -463h-141z" />
<glyph unicode="_" horiz-adv-x="1024" d="M0 -63h1024v-115h-1024v115z" />
<glyph unicode="`" horiz-adv-x="430" d="M10 1450h164l166 -266h-119z" />
<glyph unicode="a" horiz-adv-x="1026" d="M92 332q1 103 47 179t121 114q76 37 166 51q44 7 89 8q47 0 94 -8q93 -14 173 -51v118q0 74 -45.5 127.5t-115 74t-146 20.5t-146.5 -29t-108 -78l-78 74q53 58 131 94t161 46q31 4 63 4q52 0 104 -10q84 -16 148.5 -55.5t105.5 -109t41 -158.5v-702q-201 -68 -416 -68 h-18q-160 2 -265.5 99.5t-105.5 259.5zM207 332q0 -118 73 -186t189 -70h41q160 0 272 28v414q-60 24 -132 39q-69 15 -146 15h-5q-79 0 -143 -21t-106 -77t-43 -142z" />
<glyph unicode="b" horiz-adv-x="1026" d="M121 45v1409h115v-438q138 63 288 63h5q101 1 189 -37q90 -38 150 -119t60 -188v-418q0 -83 -34 -149.5t-91 -107.5t-126.5 -63t-146.5 -24q-199 0 -409 72zM236 125q111 -39 294 -39q115 0 198.5 60t82.5 167v4v418v2q1 108 -83 167t-202 61q-152 0 -290 -60v-780z" />
<glyph unicode="c" horiz-adv-x="917" d="M98 328v407q0 83 34.5 150.5t92 108.5t128.5 63t147 22q115 0 213 -46.5t149 -135.5l-96 -61q-34 63 -106 96t-160 33q-75 0 -138.5 -23.5t-106 -76.5t-42.5 -126v-4v-407v-4q0 -73 42.5 -126t106 -76.5t138.5 -23.5q99 0 177 42t101 122l105 -51q-39 -110 -145.5 -168.5 t-237.5 -58.5q-76 0 -147 22t-128.5 63t-92 108.5t-34.5 150.5z" />
<glyph unicode="d" horiz-adv-x="1046" d="M117 317v418q0 107 59 187q60 82 150 120q88 38 189 37h5q151 0 289 -63v438h115v-1409q-210 -72 -410 -72q-61 1 -118 15t-108 42t-89 67.5t-60 96t-22 123.5zM233 313q-1 -107 82.5 -167t198.5 -60q184 0 295 39v780q-138 60 -291 60q-118 -2 -202 -61t-83 -167v-2 v-418v-4z" />
<glyph unicode="e" horiz-adv-x="1009" d="M106 317v422q0 83 34.5 150.5t92.5 108.5t129 63t148 22q76 0 146.5 -22t128 -63t92 -108.5t34.5 -150.5v-174v-100h-688v-148q-1 -111 83.5 -170t203.5 -59q90 0 164.5 36t105.5 105l103 -51q-30 -66 -90 -113.5t-132 -69.5t-151 -22q-77 0 -148 22t-129 63t-92.5 108.5 t-34.5 150.5zM223 565h574v174v4q0 73 -42.5 126t-106 76.5t-138.5 23.5q-119 0 -203.5 -58.5t-83.5 -167.5v-4v-174z" />
<glyph unicode="f" horiz-adv-x="536" d="M129 0v1114q0 165 100 253.5t258 90.5v-115q-109 0 -176 -60.5t-67 -168.5v-237h229v-115h-229v-762h-115z" />
<glyph unicode="g" horiz-adv-x="1026" d="M109 328v413q0 108 57.5 186.5t144.5 115.5t189 38q129 0 293 -47q26 -7 112 -35v-1046q0 -93 -42 -163.5t-108 -108.5t-149 -53q-50 -10 -100 -10q-33 0 -66 4q-83 11 -158.5 45t-123.5 87l78 72q31 -40 85.5 -66t115.5 -34q27 -4 55 -4q34 0 70 6q64 10 115 36 t83.5 74.5t32.5 112.5v98q-126 -63 -285 -63h-5q-100 0 -187 37q-90 38 -148.5 118t-58.5 187zM223 324q-1 -106 82 -164.5t199 -61.5q151 3 289 60v749q-145 62 -293 62q-114 0 -196 -59.5t-81 -166.5v-2v-413v-4z" />
<glyph unicode="h" horiz-adv-x="1073" d="M141 0v1450h115v-453q137 64 287 64h10q97 0 183 -36q90 -38 149 -118.5t59 -187.5v-719h-115v719v2q0 107 -84 165t-200 60q-150 0 -289 -57v-889h-115z" />
<glyph unicode="i" horiz-adv-x="440" d="M125 1321q0 38 27 65t65 27t65 -27t27 -65t-27 -65t-65 -27t-65 27t-27 65zM164 0h115v1061h-115v-1061z" />
<glyph unicode="j" horiz-adv-x="448" d="M-63 -279v-114q158 0 252 94t94 254v1106h-115v-1106q0 -109 -61.5 -171.5t-169.5 -62.5zM133 1321q0 38 27 65t65 27t65 -27t27 -65t-27 -65t-65 -27t-65 27t-27 65z" />
<glyph unicode="k" horiz-adv-x="966" d="M139 0v1450h115v-946l559 557h143l-475 -479l471 -582h-141l-410 500l-147 -148v-352h-115z" />
<glyph unicode="l" horiz-adv-x="499" d="M147 328v1124h115v-1124q0 -222 209 -222v-114q-155 0 -239.5 88.5t-84.5 247.5z" />
<glyph unicode="m" horiz-adv-x="1683" d="M145 -4v971q72 40 163.5 63.5t188.5 26.5h15q89 1 173 -33q91 -36 149 -111q55 68 137.5 102.5t171.5 37.5h20q96 -1 177 -35q89 -38 144.5 -121.5t55.5 -198.5v-702h-117v698v5q1 61 -21 108q-22 49 -62 77t-89 42q-43 12 -90 12h-14q-96 -2 -175 -52t-79 -138v-752 h-113v752q0 77 -62 128q-64 50 -148 63q-41 6 -83 6q-45 -1 -89 -7q-88 -14 -136 -51v-891h-117z" />
<glyph unicode="n" horiz-adv-x="1089" d="M143 0v977q245 84 408 84q76 -2 145 -24t125 -63t89.5 -107t33.5 -148v-719h-115v719q0 109 -83 168t-195 59q-151 0 -293 -61v-885h-115z" />
<glyph unicode="o" horiz-adv-x="1046" d="M113 324v419q0 83 34.5 150.5t92 109.5t128.5 64t148 23q77 -1 148 -23t128 -64t91.5 -109.5t34.5 -150.5v-419q0 -84 -34.5 -151t-91.5 -109t-128 -64t-148 -23q-77 1 -148 23t-128.5 64t-92 109.5t-34.5 150.5zM227 324q0 -77 44.5 -131.5t107.5 -77.5t137 -23 q53 0 103 14t91.5 41t67 73t25.5 104v419q0 77 -44.5 131t-107 76.5t-135.5 22.5q-74 0 -137 -22.5t-107.5 -76.5t-44.5 -131v-419z" />
<glyph unicode="p" d="M123 -391v1399q207 71 409 71q76 -1 146 -22.5t127 -62.5t91 -107.5t34 -149.5v-411q0 -108 -59.5 -189t-150.5 -119q-88 -38 -189 -38h-5q-152 3 -288 65v-436h-115zM238 154q146 -60 290 -60q117 2 201.5 61.5t83.5 166.5v4v411v4q1 107 -82 165.5t-199 58.5 q-194 0 -294 -35v-776z" />
<glyph unicode="q" d="M106 326v411q0 83 34 149.5t91 107.5t127 62.5t146 22.5q202 0 409 -71v-1399h-114v436q-136 -62 -289 -65h-5q-101 0 -189 38q-91 38 -150.5 119t-59.5 189zM223 322q-1 -107 83.5 -166.5t201.5 -61.5q145 0 291 60v776q-100 35 -295 35q-116 0 -199 -58.5t-82 -165.5 v-4v-411v-4z" />
<glyph unicode="r" horiz-adv-x="628" d="M127 0v727q0 132 83.5 220t213.5 114q38 8 87 9q35 0 75 -5v-115q-32 7 -67 7q-39 0 -81 -9q-86 -20 -141 -76t-55 -145v-727h-115z" />
<glyph unicode="s" horiz-adv-x="874" d="M45 207l88 55q60 -82 145 -126q80 -41 165 -40h12q100 2 168 47q67 44 67 137q0 44 -15.5 76.5t-37.5 52.5t-57.5 35t-64.5 22.5t-69 14.5q-62 11 -105.5 22t-97 34t-86.5 53t-56 78.5t-23 111.5q0 77 34.5 136t91 92.5t120.5 50t131 16.5q85 0 163.5 -27t133.5 -79 l-74 -86q-79 82 -223 82q-45 0 -88 -8.5t-84.5 -28t-67 -58t-25.5 -90.5q1 -40 20.5 -71t42 -49t67 -33.5t67.5 -20.5t70 -14q7 -1 10 -2q55 -10 99.5 -23.5t90 -38t77 -56.5t51 -80.5t20.5 -108.5q0 -73 -29.5 -130.5t-79.5 -92t-111 -52.5t-130 -20h-13q-119 0 -221 54 q-108 56 -176 165z" />
<glyph unicode="t" horiz-adv-x="563" d="M137 334v1116h115v-389h229v-115h-229v-612q0 -112 78 -184q61 -56 139 -57q22 0 45 5v-102q-32 -5 -62 -5q-118 1 -206 77q-110 96 -109 266z" />
<glyph unicode="u" horiz-adv-x="1058" d="M131 324v739h115v-739v-5q0 -106 82 -164.5t196 -60.5q144 0 293 64v905h115v-1000q-80 -24 -115 -34q-164 -47 -293 -47q-76 1 -145 23t-125 63t-89.5 107.5t-33.5 148.5z" />
<glyph unicode="v" horiz-adv-x="956" d="M25 1061h120l336 -957l334 957h121l-373 -1061h-166z" />
<glyph unicode="w" horiz-adv-x="1458" d="M25 1061h120l281 -942l229 942h146l229 -942l281 942h121l-320 -1061h-164l-219 907l-221 -907h-164z" />
<glyph unicode="x" horiz-adv-x="923" d="M25 0l364 530l-364 531h139l295 -449l293 449h139l-365 -531l365 -530h-139l-293 446l-295 -446h-139z" />
<glyph unicode="y" horiz-adv-x="1062" d="M117 338v723h119v-723v-4q-1 -110 85 -170t205 -62q157 0 299 62v897h117v-1102q0 -96 -43 -170t-111 -114t-154 -56q-52 -10 -104 -10q-34 0 -68 5q-85 10 -163.5 46t-130.5 92l82 76q32 -41 88 -68t120 -36q29 -4 59 -4q34 0 69 6q66 10 119 37t86.5 78t33.5 118v94 q-61 -39 -132.5 -53t-162.5 -16h-6q-76 0 -146 22q-74 24 -132.5 68t-93.5 112.5t-35 151.5z" />
<glyph unicode="z" horiz-adv-x="897" d="M29 82l667 868l-628 -6v117h718l68 -84l-661 -864l657 4v-117h-750z" />
<glyph unicode="{" horiz-adv-x="587" d="M102 590v98q144 0 144 316v296q0 116 47 182t133 66h102v-98h-75q-25 0 -41 -8t-25 -18.5t-13 -35.5t-4.5 -43t-0.5 -57v-327q1 -75 -12.5 -138t-33.5 -99.5t-37 -56.5t-30 -26v-4q13 -7 30 -27.5t37 -57t33.5 -99t12.5 -136.5v-335q0 -84 17.5 -119t76.5 -35h65v-98 h-102q-85 0 -132.5 66t-47.5 181v299q0 314 -144 314z" />
<glyph unicode="|" horiz-adv-x="454" d="M178 -365v1909h115v-1909h-115z" />
<glyph unicode="}" horiz-adv-x="563" d="M47 -172h66q59 0 76.5 35t17.5 119v335q-1 74 12.5 136.5t33.5 99t36.5 57t29.5 27.5v4q-12 6 -29.5 26t-37 56.5t-33 99.5t-12.5 138v327q0 39 -0.5 57t-4.5 43t-13 35.5t-25 18.5t-41 8h-76v98h103q86 0 133 -66t47 -182v-296q0 -316 143 -316v-98q-143 0 -143 -314 v-299q0 -115 -47.5 -181t-132.5 -66h-103v98z" />
<glyph unicode="~" horiz-adv-x="1112" d="M147 561q96 184 256 184q43 0 84.5 -14.5t74 -34.5t62.5 -40.5t61.5 -35t59.5 -14.5q56 0 97 36.5t84 102.5l67 -61q-90 -188 -256 -188q-47 0 -95.5 22t-83 48.5t-78.5 48.5t-83 22q-56 0 -97 -35t-83 -100z" />
<glyph unicode="&#xa1;" horiz-adv-x="569" d="M180 909q0 41 29 70t70 29t69.5 -29t28.5 -70t-28.5 -69.5t-69.5 -28.5t-70 28.5t-29 69.5zM217 -455v1069h123v-1069h-123z" />
<glyph unicode="&#xa2;" horiz-adv-x="942" d="M102 338v389q0 148 99.5 236.5t244.5 103.5v190h95v-188q104 -6 190.5 -52t132.5 -128l-96 -62q-30 56 -90.5 88.5t-136.5 38.5v-843q86 6 152.5 47.5t88.5 113.5l103 -51q-37 -101 -131 -159t-213 -66v-189h-95v189q-146 16 -245 105t-99 237zM217 334q-1 -94 64 -151 t165 -70v839q-100 -13 -165 -70t-64 -151v-4v-389v-4z" />
<glyph unicode="&#xa3;" horiz-adv-x="991" d="M66 0v104h213v603h-213v98h213v246q0 59 12 115t42 113.5t75 100t118 69t164 26.5q151 0 279 -113l-82 -78q-43 43 -90 61.5t-113 18.5q-74 0 -132 -29t-91 -75t-49.5 -96t-16.5 -99v-260h338v-98h-338v-603h502v-104h-831z" />
<glyph unicode="&#xa4;" horiz-adv-x="1148" d="M72 725q0 190 123 322l-117 112l69 76l117 -115q140 109 318 109q177 0 317 -109l117 115l69 -76l-116 -112q123 -132 123 -322t-123 -322l116 -112l-69 -76l-117 115q-140 -109 -317 -109q-178 0 -318 109l-117 -115l-69 76l117 112q-123 132 -123 322zM182 723 q0 -165 117 -281t279 -116q163 0 280 116t117 281q0 168 -116.5 285.5t-280.5 117.5q-162 0 -279 -117.5t-117 -285.5z" />
<glyph unicode="&#xa5;" horiz-adv-x="1077" d="M-33 1452h142l423 -778l422 778h144l-469 -819h307l-21 -90h-323v-109h346l-20 -90h-326v-342h-121v342h-344l18 90h326v109h-338l21 90h280z" />
<glyph unicode="&#xa6;" horiz-adv-x="436" d="M160 -295v717h119v-717h-119zM160 729v717h119v-717h-119z" />
<glyph unicode="&#xa7;" horiz-adv-x="1015" d="M98 -49l109 51q32 -87 109.5 -133.5t172.5 -46.5q64 0 122.5 23t98.5 71.5t40 110.5q0 56 -34.5 100.5t-89.5 76t-121 60.5t-132.5 62.5t-121.5 73.5t-89.5 102t-34.5 139q0 172 217 264q-168 101 -168 260q0 101 57 176t142 110.5t182 35.5q111 0 200.5 -48t127.5 -145 l-109 -59q-28 67 -88.5 102t-136.5 35q-99 0 -175.5 -56.5t-76.5 -150.5q0 -53 33 -96t86.5 -73.5t117.5 -59.5t128 -62t117.5 -72.5t86.5 -99t33 -133.5q0 -170 -182 -270q70 -41 111.5 -107t41.5 -145q0 -157 -112 -249.5t-268 -92.5q-134 0 -240.5 62t-153.5 184z M254 645q0 -74 35.5 -114.5t107.5 -77.5l217 -105q65 35 117.5 92.5t52.5 118.5q0 113 -166 203l-155 88q-39 -13 -72 -30t-66 -41.5t-52 -59t-19 -74.5z" />
<glyph unicode="&#xa8;" horiz-adv-x="575" d="M23 1352q0 35 24 59.5t59 24.5t59.5 -24.5t24.5 -59.5t-24.5 -59.5t-59.5 -24.5t-59 24.5t-24 59.5zM391 1352q0 35 24.5 59.5t59.5 24.5t59.5 -24.5t24.5 -59.5t-24.5 -59.5t-59.5 -24.5t-59.5 24.5t-24.5 59.5z" />
<glyph unicode="&#xa9;" horiz-adv-x="1626" d="M61 725q0 155 60.5 296t162.5 243t243 162.5t296 60.5t296 -60.5t243 -162.5t162.5 -243t60.5 -296t-60.5 -296t-162.5 -243t-243 -162.5t-296 -60.5t-296 60.5t-243 162.5t-162.5 243t-60.5 296zM182 725q0 -174 86 -321.5t233.5 -233.5t321.5 -86t321.5 86t233.5 233.5 t86 321.5t-86 321.5t-233.5 233.5t-321.5 86t-321.5 -86t-233.5 -233.5t-86 -321.5zM422 571q0 -83 34.5 -150.5t92 -108.5t128 -63t146.5 -22q130 0 237 59t146 169l-104 51q-23 -80 -101.5 -122t-177.5 -42q-75 0 -138 23.5t-105.5 76t-42.5 125.5v4v310v4 q0 73 42.5 125.5t105.5 76t138 23.5q88 0 160.5 -33t106.5 -96l96 61q-51 89 -149.5 136t-213.5 47q-76 0 -146.5 -22t-128 -63t-92 -108.5t-34.5 -150.5v-310z" />
<glyph unicode="&#xaa;" horiz-adv-x="677" d="M43 981q1 62 25 106.5t65.5 68.5t90 35t106.5 11q82 0 155 -28v75q0 58 -49.5 87.5t-118.5 29.5q-51 0 -100 -17t-78 -53l-69 68q49 55 117 83t139 28q112 0 192 -60t80 -170v-471q-140 -46 -299 -43q-110 2 -183 69.5t-73 180.5zM156 981q0 -67 42 -107.5t105 -42.5 q98 0 182 17v233q-83 27 -159 27q-168 0 -170 -127z" />
<glyph unicode="&#xab;" horiz-adv-x="854" d="M72 604l280 416l99 -59l-244 -357l244 -356l-99 -60zM369 604l280 416l99 -59l-244 -357l244 -356l-99 -60z" />
<glyph unicode="&#xac;" horiz-adv-x="1161" d="M88 705v112h977v-469h-113v357h-864z" />
<glyph unicode="&#xad;" horiz-adv-x="681" d="M88 436v119h506v-119h-506z" />
<glyph unicode="&#xae;" horiz-adv-x="1607" d="M47 725q0 155 60.5 296t162.5 243t243 162.5t296 60.5t296 -60.5t243 -162.5t162.5 -243t60.5 -296t-60.5 -296t-162.5 -243t-243 -162.5t-296 -60.5t-296 60.5t-243 162.5t-162.5 243t-60.5 296zM164 725q0 -175 86.5 -323.5t235 -235t323.5 -86.5t323.5 86.5t235 235 t86.5 323.5t-86.5 323.5t-235 235t-323.5 86.5t-323.5 -86.5t-235 -235t-86.5 -323.5zM532 289v878h314q147 0 224 -67.5t77 -188.5q0 -115 -62.5 -182.5t-158.5 -83.5l262 -356h-125l-262 356h-160v-356h-109zM641 743h143q52 0 91.5 6.5t78.5 23t60.5 51.5t21.5 87 q0 79 -58.5 118.5t-137.5 39.5h-199v-326z" />
<glyph unicode="&#xaf;" horiz-adv-x="491" d="M-25 1311v119h541v-119h-541z" />
<glyph unicode="&#xb0;" horiz-adv-x="714" d="M80 1196q0 114 80 193t194 79t194.5 -79t80.5 -193t-81 -195t-194 -81q-114 0 -194 80.5t-80 195.5zM182 1194q0 -70 51 -121t121 -51t121 51t51 121t-51 121t-121 51t-121 -51t-51 -121z" />
<glyph unicode="&#xb1;" horiz-adv-x="1161" d="M133 776v117h385v367h117v-367h395v-117h-395v-368h-117v368h-385zM141 195v112h881v-112h-881z" />
<glyph unicode="&#xb2;" horiz-adv-x="692" d="M31 657l426 404q46 42 68 96t1 105q-17 43 -61 69q-54 30 -119.5 32t-122.5 -22q-63 -26 -92 -86l-96 41q42 101 158 146q78 30 168.5 23.5t162.5 -50.5q74 -44 103 -119q30 -79 0 -163t-97 -146l-315 -301h426v-104h-580z" />
<glyph unicode="&#xb3;" horiz-adv-x="706" d="M43 768l92 45l8 -16q23 -48 79.5 -77t115.5 -32q53 -3 108.5 16.5t88.5 59.5q26 36 26 86q0 73 -35 113q-54 51 -149 47h-66v82h66q29 0 63 14.5t56 36.5q30 24 30 84q0 46 -30 84q-38 42 -104.5 52t-129 -14t-90.5 -73l-8 -16l-86 47q31 79 104 115t156 40q63 3 127 -18 q65 -25 102 -64q58 -61 58 -153q0 -53 -25 -98.5t-70 -69.5q67 -26 101.5 -80.5t34.5 -128.5v-2q-3 -94 -64 -164q-47 -51 -120 -75t-150 -21q-89 5 -167.5 47.5t-113.5 116.5z" />
<glyph unicode="&#xb4;" horiz-adv-x="436" d="M82 1184l166 266h164l-211 -266h-119z" />
<glyph unicode="&#xb5;" horiz-adv-x="1028" d="M117 -467v1516h123v-660q0 -303 237 -303q144 0 236 100t92 287v576h123l6 -1049h-119q-4 127 -8 147h-6q-37 -79 -123.5 -125.5t-200.5 -46.5q-154 0 -239 117v-559h-121z" />
<glyph unicode="&#xb6;" horiz-adv-x="1128" d="M39 979q-4 169 97 296q124 156 350 173q26 2 53 2h465v-1708h-119v1610h-256v-1610h-123v803q-226 0 -357 147q-106 119 -110 287z" />
<glyph unicode="&#xb7;" horiz-adv-x="532" d="M168 651q0 41 28.5 70t69.5 29t70 -29t29 -70t-29 -69.5t-70 -28.5t-69.5 28.5t-28.5 69.5z" />
<glyph unicode="&#xb8;" horiz-adv-x="491" d="M68 -365l24 68q58 -31 133 -31q41 0 77 19.5t36 58.5q0 38 -35 56t-76 16.5t-69 -15.5l-27 27l107 166h65l-74 -115l4 -4q67 31 130.5 -11.5t60.5 -119.5q-3 -78 -60.5 -115.5t-134.5 -37.5q-83 0 -161 38z" />
<glyph unicode="&#xb9;" horiz-adv-x="577" d="M96 1223l207 237h98v-868h-102v708l-125 -139z" />
<glyph unicode="&#xba;" horiz-adv-x="745" d="M53 973v237q0 121 94 188.5t220 67.5t219.5 -67.5t93.5 -188.5v-237q0 -121 -93.5 -188.5t-219.5 -67.5t-220 67.5t-94 188.5zM158 973q0 -54 33.5 -90.5t78 -50t97.5 -13.5q52 0 97 13.5t78 50t33 90.5v237q0 54 -33 90.5t-78 50t-97 13.5q-53 0 -97.5 -13.5t-78 -50 t-33.5 -90.5v-237z" />
<glyph unicode="&#xbb;" horiz-adv-x="829" d="M90 248l244 356l-244 357l98 59l281 -416l-281 -416zM387 248l244 356l-244 357l98 59l281 -416l-281 -416z" />
<glyph unicode="&#xbc;" horiz-adv-x="1482" d="M61 1223l78 -62l125 139v-708h103v868h-99zM201 -12l934 1532l94 -58l-936 -1532zM774 309l68 -98h395v-209h104v209h70v96h-70v565h-108zM899 307l346 434l-8 -434h-338z" />
<glyph unicode="&#xbd;" horiz-adv-x="1585" d="M74 1223l78 -62l124 139v-708h103v868h-98zM172 -12l934 1532l94 -58l-936 -1532zM899 70l31 -76h579v104h-426l316 301q67 62 96.5 146.5t-0.5 163.5q-29 74 -102 118q-72 44 -163 50.5t-169 -23.5q-117 -45 -158 -145l96 -41q29 59 93 86q129 51 241 -11q46 -27 62 -69 q21 -51 -1.5 -105t-68.5 -96z" />
<glyph unicode="&#xbe;" horiz-adv-x="1556" d="M35 768l8 -16q35 -74 113.5 -116.5t167.5 -47.5q48 -2 95.5 7.5t90.5 30.5t76 52t52.5 75.5t18.5 96.5q0 74 -34 128.5t-101 80.5q45 24 69.5 69t24.5 99q0 93 -57 153q-37 39 -102 64q-64 21 -127 18q-83 -4 -156 -40t-104 -115l86 -47l8 16q28 49 90.5 73t128.5 14 t104 -52q31 -39 31 -84q0 -59 -31 -84q-22 -22 -55.5 -36.5t-62.5 -14.5h-66v-82h66q95 4 149 -47q35 -40 35 -113q0 -81 -70.5 -124t-152.5 -38q-59 3 -115.5 32t-79.5 77l-8 16zM340 -12l934 1532l94 -58l-936 -1532zM846 309l67 -98h396v-209h104v209h70v96h-70v565h-108 zM971 307l346 434l-8 -434h-338z" />
<glyph unicode="&#xbf;" horiz-adv-x="978" d="M61 -4q-1 -111 46 -198t123 -136t172 -70t191.5 -9.5t184 56t146.5 117.5l-90 72h-3q-36 -46 -90 -77.5t-114 -44t-123 -11.5t-120.5 23t-103.5 57t-73.5 92t-28.5 127q-2 105 61 185.5t160.5 120t210.5 40.5l-14 442h-100l-15 -346q-86 -15 -157.5 -47t-132 -83.5 t-95 -130.5t-35.5 -179zM451 991q0 40 27 67t65 27q40 0 68 -27t28 -67t-28 -68t-68 -28q-38 0 -65 28t-27 68z" />
<glyph unicode="&#xc0;" horiz-adv-x="1267" d="M20 0h127l170 483h623l174 -483h127l-524 1450h-176zM360 604l269 756l268 -756h-537zM377 1802h164l166 -266h-119z" />
<glyph unicode="&#xc1;" horiz-adv-x="1267" d="M20 0l521 1450h176l524 -1450h-127l-174 483h-623l-170 -483h-127zM360 604h537l-268 756zM565 1528l166 266h164l-211 -266h-119z" />
<glyph unicode="&#xc2;" horiz-adv-x="1267" d="M20 0h127l170 483h623l174 -483h127l-524 1450h-176zM340 1503l221 244h144l221 -244h-135l-162 168l-152 -168h-137zM360 604l269 756l268 -756h-537z" />
<glyph unicode="&#xc3;" horiz-adv-x="1267" d="M20 0h127l170 483h623l174 -483h127l-524 1450h-176zM360 604l269 756l268 -756h-537zM385 1567q20 94 101.5 123t164.5 -19q28 -17 57 -23.5t57.5 4.5t43.5 44l74 -29q-12 -62 -54.5 -93.5t-94.5 -30.5t-103 26q-143 74 -176 -27z" />
<glyph unicode="&#xc4;" horiz-adv-x="1267" d="M20 0h127l170 483h623l174 -483h127l-524 1450h-176zM360 604l269 756l268 -756h-537zM365 1616q0 35 24.5 59.5t59.5 24.5t59 -24.5t24 -59.5t-24 -59.5t-59 -24.5t-59.5 24.5t-24.5 59.5zM733 1616q0 35 24.5 59.5t59.5 24.5t59.5 -24.5t24.5 -59.5t-24.5 -59.5 t-59.5 -24.5t-59.5 24.5t-24.5 59.5z" />
<glyph unicode="&#xc5;" horiz-adv-x="1267" d="M20 0h127l170 483h623l174 -483h127l-524 1450h-176zM360 604l269 756l268 -756h-537zM442 1694q0 78 57 136t136 58q78 0 133 -59t55 -137q0 -76 -55.5 -134.5t-132.5 -58.5q-79 0 -136 58t-57 137zM532 1692q0 -43 30 -73t71 -30q42 0 71 31t29 74t-29 73.5t-71 30.5 t-71.5 -31.5t-29.5 -74.5z" />
<glyph unicode="&#xc6;" horiz-adv-x="1669" d="M18 0l740 1450h821v-121h-618v-545h555v-120h-555v-543h618v-121h-739v483h-441l-239 -483h-142zM461 604h379v750z" />
<glyph unicode="&#xc7;" horiz-adv-x="1179" d="M98 426v598q0 93 36.5 170.5t98 130.5t142.5 87.5t168.5 46t178 2t170 -40t144.5 -86.5t101 -130l-109 -53v-2q-35 72 -110.5 119.5t-164.5 65t-184.5 6t-172.5 -48t-127 -106.5t-50 -161v-598q0 -91 50 -161t127 -106.5t172.5 -48t184.5 6t164.5 65t110.5 119.5l109 -53 q-62 -127 -202 -195.5t-306 -66.5l-54 -80l5 -4q46 17 90 5t75 -52t29 -88q-3 -78 -62.5 -118t-136.5 -40q-73 0 -161 43l28 72q58 -31 129 -31q41 0 73 17.5t32 56.5q0 38 -34 56t-74 16.5t-68 -15.5l-27 26l84 140q-126 12 -227.5 62.5t-166.5 147.5t-65 226z" />
<glyph unicode="&#xc8;" horiz-adv-x="1171" d="M162 0v1452h909v-121h-788v-545h727v-122h-727v-543h788v-121h-909zM393 1798h164l166 -266h-119z" />
<glyph unicode="&#xc9;" horiz-adv-x="1171" d="M162 0v1452h909v-121h-788v-545h727v-122h-727v-543h788v-121h-909zM545 1528l166 266h163l-210 -266h-119z" />
<glyph unicode="&#xca;" horiz-adv-x="1171" d="M162 0v1452h909v-121h-788v-545h727v-122h-727v-543h788v-121h-909zM336 1528l221 244h143l222 -244h-136l-161 168l-152 -168h-137z" />
<glyph unicode="&#xcb;" horiz-adv-x="1171" d="M162 0v1452h909v-121h-788v-545h727v-122h-727v-543h788v-121h-909zM371 1626q0 35 24.5 59.5t59.5 24.5t59.5 -24.5t24.5 -59.5t-24.5 -59.5t-59.5 -24.5t-59.5 24.5t-24.5 59.5zM739 1626q0 35 24.5 59.5t59.5 24.5t59.5 -24.5t24.5 -59.5t-24.5 -59.5t-59.5 -24.5 t-59.5 24.5t-24.5 59.5z" />
<glyph unicode="&#xcc;" horiz-adv-x="475" d="M-37 1808h164l166 -266h-119zM164 0v1450h121v-1450h-121z" />
<glyph unicode="&#xcd;" horiz-adv-x="475" d="M164 0v1450h121v-1450h-121zM164 1538l166 266h164l-211 -266h-119z" />
<glyph unicode="&#xce;" horiz-adv-x="475" d="M-61 1524l221 237h143l221 -237h-135l-162 162l-151 -162h-137zM164 0v1450h121v-1450h-121z" />
<glyph unicode="&#xcf;" horiz-adv-x="475" d="M-41 1620q0 35 24.5 59.5t59.5 24.5t59.5 -24.5t24.5 -59.5t-24.5 -59.5t-59.5 -24.5t-59.5 24.5t-24.5 59.5zM164 0v1450h121v-1450h-121zM328 1620q0 35 24.5 59.5t59.5 24.5t59.5 -24.5t24.5 -59.5t-24.5 -59.5t-59.5 -24.5t-59.5 24.5t-24.5 59.5z" />
<glyph unicode="&#xd0;" horiz-adv-x="1255" d="M18 662v108h129v680h484q106 0 200.5 -25t172.5 -74.5t124 -133t46 -191.5v-604q0 -86 -30.5 -157.5t-82 -119.5t-122 -81.5t-147.5 -48.5t-161 -15h-484v662h-129zM268 121h363q65 0 125 10.5t114.5 34t94.5 57.5t64 85.5t24 113.5v604q0 78 -35.5 138t-96.5 95 t-134.5 52.5t-155.5 17.5h-363v-559h256v-108h-256v-541z" />
<glyph unicode="&#xd1;" horiz-adv-x="1411" d="M162 0v1450h147l819 -1317v1317h121v-1450h-180l-786 1264v-1264h-121zM477 1561q20 94 101.5 123t164.5 -19q28 -17 57 -23.5t57.5 4.5t43.5 44l74 -29q-12 -62 -54.5 -93.5t-94.5 -30.5t-103 26q-143 74 -176 -27z" />
<glyph unicode="&#xd2;" horiz-adv-x="1396" d="M123 410v632q0 107 49.5 194t130 140.5t184 82.5t211 29t211 -29t184 -82.5t130 -140.5t49.5 -194v-632q0 -107 -49.5 -194t-130 -140.5t-184 -82.5t-211 -29t-211 29t-184 82.5t-130 140.5t-49.5 194zM244 410q0 -70 31 -128.5t83.5 -96.5t120.5 -64.5t143 -32t150 0 t143 32t120.5 64.5t84 96.5t31.5 128.5v632q0 83 -39 147t-105 102t-145.5 57.5t-167.5 19.5q-87 -1 -165.5 -21t-143.5 -58t-103 -102t-38 -145v-632zM446 1810h164l166 -266h-119z" />
<glyph unicode="&#xd3;" horiz-adv-x="1396" d="M123 410v632q0 107 49.5 194t130 140.5t184 82.5t211 29t211 -29t184 -82.5t130 -140.5t49.5 -194v-632q0 -107 -49.5 -194t-130 -140.5t-184 -82.5t-211 -29t-211 29t-184 82.5t-130 140.5t-49.5 194zM244 410q0 -70 31 -128.5t83.5 -96.5t120.5 -64.5t143 -32t150 0 t143 32t120.5 64.5t84 96.5t31.5 128.5v632q0 83 -39 147t-105 102t-145.5 57.5t-167.5 19.5q-87 -1 -165.5 -21t-143.5 -58t-103 -102t-38 -145v-632zM643 1546l166 266h164l-211 -266h-119z" />
<glyph unicode="&#xd4;" horiz-adv-x="1396" d="M123 410v632q0 107 49.5 194t130 140.5t184 82.5t211 29t211 -29t184 -82.5t130 -140.5t49.5 -194v-632q0 -107 -49.5 -194t-130 -140.5t-184 -82.5t-211 -29t-211 29t-184 82.5t-130 140.5t-49.5 194zM244 410q0 -70 31 -128.5t83.5 -96.5t120.5 -64.5t143 -32t150 0 t143 32t120.5 64.5t84 96.5t31.5 128.5v632q0 83 -39 147t-105 102t-145.5 57.5t-167.5 19.5q-87 -1 -165.5 -21t-143.5 -58t-103 -102t-38 -145v-632zM408 1538l221 244h143l221 -244h-135l-162 168l-151 -168h-137z" />
<glyph unicode="&#xd5;" horiz-adv-x="1396" d="M123 410v632q0 107 49.5 194t130 140.5t184 82.5t211 29t211 -29t184 -82.5t130 -140.5t49.5 -194v-632q0 -107 -49.5 -194t-130 -140.5t-184 -82.5t-211 -29t-211 29t-184 82.5t-130 140.5t-49.5 194zM244 410q0 -70 31 -128.5t83.5 -96.5t120.5 -64.5t143 -32t150 0 t143 32t120.5 64.5t84 96.5t31.5 128.5v632q0 83 -39 147t-105 102t-145.5 57.5t-167.5 19.5q-87 -1 -165.5 -21t-143.5 -58t-103 -102t-38 -145v-632zM444 1579q20 94 102 123t165 -19q20 -12 42 -19t44 -6.5t41 13t30 37.5l74 -29q-12 -62 -54.5 -93.5t-94.5 -30.5 t-103 26q-143 74 -176 -27z" />
<glyph unicode="&#xd6;" horiz-adv-x="1396" d="M123 410v632q0 107 49.5 194t130 140.5t184 82.5t211 29t211 -29t184 -82.5t130 -140.5t49.5 -194v-632q0 -107 -49.5 -194t-130 -140.5t-184 -82.5t-211 -29t-211 29t-184 82.5t-130 140.5t-49.5 194zM244 410q0 -70 31 -128.5t83.5 -96.5t120.5 -64.5t143 -32t150 0 t143 32t120.5 64.5t84 96.5t31.5 128.5v632q0 83 -39 147t-105 102t-145.5 57.5t-167.5 19.5q-87 -1 -165.5 -21t-143.5 -58t-103 -102t-38 -145v-632zM438 1618q0 35 24.5 59.5t59.5 24.5t59.5 -24.5t24.5 -59.5t-24.5 -59.5t-59.5 -24.5t-59.5 24.5t-24.5 59.5zM807 1618 q0 35 24.5 59.5t59.5 24.5t59.5 -24.5t24.5 -59.5t-24.5 -59.5t-59.5 -24.5t-59.5 24.5t-24.5 59.5z" />
<glyph unicode="&#xd7;" horiz-adv-x="978" d="M82 954l82 82l336 -338l329 330l80 -82l-325 -325l321 -322l-82 -84l-323 324l-332 -332l-80 84l328 327z" />
<glyph unicode="&#xd8;" horiz-adv-x="1396" d="M123 410v632q0 92 36 169t97 129t142 88t170 49t182 7.5t178 -30.5l57 143l107 -36l-60 -150q110 -57 175 -150.5t65 -218.5v-632q0 -91 -36 -168t-96.5 -129.5t-141 -88t-169.5 -49.5t-181.5 -9t-176.5 30l-59 -152l-109 37l62 158q-112 57 -177 151t-65 220zM244 410 q0 -167 166 -260l473 1193q-92 25 -189 25q-87 -1 -165.5 -21t-143.5 -58t-103 -102t-38 -145v-632zM516 109q80 -23 168 -25t170 19t149 59.5t107 103t41 144.5v632q0 172 -162 261z" />
<glyph unicode="&#xd9;" horiz-adv-x="1400" d="M156 424v1026h120v-1026q0 -80 36.5 -144t96 -103.5t135.5 -61t155 -21.5t155 21.5t135.5 61t96 103.5t36.5 144v1026h121v-1026q0 -144 -80.5 -249.5t-201.5 -153t-261.5 -47.5t-261.5 47.5t-201.5 153t-80.5 249.5zM451 1794h163l166 -266h-118z" />
<glyph unicode="&#xda;" horiz-adv-x="1400" d="M156 424v1026h120v-1026q0 -80 36.5 -144t96 -103.5t135.5 -61t155 -21.5t155 21.5t135.5 61t96 103.5t36.5 144v1026h121v-1026q0 -144 -80.5 -249.5t-201.5 -153t-261.5 -47.5t-261.5 47.5t-201.5 153t-80.5 249.5zM588 1524l166 266h164l-211 -266h-119z" />
<glyph unicode="&#xdb;" horiz-adv-x="1400" d="M156 424v1026h120v-1026q0 -80 36.5 -144t96 -103.5t135.5 -61t155 -21.5t155 21.5t135.5 61t96 103.5t36.5 144v1026h121v-1026q0 -144 -80.5 -249.5t-201.5 -153t-261.5 -47.5t-261.5 47.5t-201.5 153t-80.5 249.5zM416 1540l221 244h143l221 -244h-135l-161 168 l-152 -168h-137z" />
<glyph unicode="&#xdc;" horiz-adv-x="1400" d="M156 424v1026h120v-1026q0 -82 36.5 -148t96 -106.5t135.5 -62.5t155 -22t155 22t135.5 62.5t96 106.5t36.5 148v1026h121v-1026q0 -144 -80.5 -249.5t-201.5 -153t-261.5 -47.5t-261.5 47.5t-201.5 153t-80.5 249.5zM434 1630q0 35 24.5 59.5t59.5 24.5t59.5 -24.5 t24.5 -59.5t-24.5 -59.5t-59.5 -24.5t-59.5 24.5t-24.5 59.5zM803 1630q0 35 24.5 59.5t59.5 24.5t59.5 -24.5t24.5 -59.5t-24.5 -59.5t-59.5 -24.5t-59.5 24.5t-24.5 59.5z" />
<glyph unicode="&#xdd;" horiz-adv-x="1122" d="M-4 1450h141l424 -762l422 762h143l-505 -883v-567h-121v567zM494 1522l165 266h164l-211 -266h-118z" />
<glyph unicode="&#xde;" horiz-adv-x="1124" d="M160 2v1462h123v-284q88 12 192 12q278 0 423.5 -114t145.5 -330q0 -98 -34 -175.5t-90 -126.5t-134 -81t-160.5 -45t-174.5 -13h-54l11 119h36q71 0 134 8t128 30t111 56.5t75.5 93t29.5 134.5q0 78 -29 137t-73.5 93.5t-107 56t-121 29t-124.5 7.5q-101 0 -184 -14 v-1055h-123z" />
<glyph unicode="&#xdf;" horiz-adv-x="1230" d="M158 -2v1122q0 92 39 167.5t104 123t145.5 73t167.5 25.5t167.5 -23.5t146.5 -68.5t105.5 -118.5t39.5 -165.5q0 -105 -41.5 -192t-126.5 -136q236 -81 236 -375q-2 -107 -49 -192t-123.5 -137t-170.5 -78.5t-196 -24.5q-130 3 -221 49l2 129q44 -23 104 -38t113 -17 q109 -2 201.5 30t154.5 105t62 176q0 107 -49.5 178t-129.5 101.5t-186 29.5h-188v115h188q128 0 213.5 73t85.5 204q0 69 -29 121.5t-79 82t-107.5 44t-122.5 14.5q-64 0 -122.5 -16.5t-107.5 -48.5t-78.5 -86.5t-29.5 -123.5v-1122h-118z" />
<glyph unicode="&#xe0;" d="M92 332q0 -162 105.5 -259.5t265.5 -99.5q224 -3 434 68v702q0 89 -41 158.5t-106 108.5t-148.5 55.5t-166.5 6.5t-161 -46t-131 -94l78 -74q38 49 108 78t146.5 29t146 -20.5t115 -74t45.5 -127.5v-118q-80 37 -173 51t-183.5 0.5t-165.5 -51.5t-121 -114t-47 -179z M207 332q1 86 43 142t106 76.5t143 21t150.5 -14.5t132.5 -39v-414q-126 -32 -313 -28q-116 2 -189 70t-73 186zM299 1360h150l143 -236h-103z" />
<glyph unicode="&#xe1;" d="M92 332q1 103 47 179t121 114t165.5 51.5t183.5 -0.5t173 -51v118q0 74 -45.5 127.5t-115 74t-146 20.5t-146.5 -29t-108 -78l-78 74q53 58 131 94t161 46t166.5 -6.5t148.5 -55.5t106 -108.5t41 -158.5v-702q-210 -71 -434 -68q-160 2 -265.5 99.5t-105.5 259.5z M207 332q0 -118 73 -186t189 -70q187 -4 313 28v414q-61 24 -132.5 39t-150.5 14.5t-143 -21t-106 -76.5t-43 -142zM410 1124l143 236h149l-190 -236h-102z" />
<glyph unicode="&#xe2;" d="M92 332q0 -162 105.5 -259.5t265.5 -99.5q224 -3 434 68v702q0 89 -41 158.5t-106 108.5t-148.5 55.5t-166.5 6.5t-161 -46t-131 -94l78 -74q38 49 108 78t146.5 29t146 -20.5t115 -74t45.5 -127.5v-118q-80 37 -173 51t-183.5 0.5t-165.5 -51.5t-121 -114t-47 -179z M207 332q1 86 43 142t106 76.5t143 21t150.5 -14.5t132.5 -39v-414q-126 -32 -313 -28q-116 2 -189 70t-73 186zM244 1124l198 219h129l199 -219h-121l-145 152l-137 -152h-123z" />
<glyph unicode="&#xe3;" d="M92 332q0 -162 105.5 -259.5t265.5 -99.5q224 -3 434 68v702q0 89 -41 158.5t-106 108.5t-148.5 55.5t-166.5 6.5t-161 -46t-131 -94l78 -74q38 49 108 78t146.5 29t146 -20.5t115 -74t45.5 -127.5v-118q-80 37 -173 51t-183.5 0.5t-165.5 -51.5t-121 -114t-47 -179z M207 332q1 86 43 142t106 76.5t143 21t150.5 -14.5t132.5 -39v-414q-126 -32 -313 -28q-116 2 -189 70t-73 186zM270 1186q18 94 91.5 123t146.5 -19q25 -17 51 -23.5t51.5 4.5t38.5 44l66 -29q-11 -62 -49 -93.5t-84.5 -30.5t-92.5 26q-24 14 -46 22t-44.5 8.5t-40 -14 t-26.5 -43.5z" />
<glyph unicode="&#xe4;" d="M92 332q0 -162 105.5 -259.5t265.5 -99.5q224 -3 434 68v702q0 89 -41 158.5t-106 108.5t-148.5 55.5t-166.5 6.5t-161 -46t-131 -94l78 -74q38 49 108 78t146.5 29t146 -20.5t115 -74t45.5 -127.5v-118q-80 37 -173 51t-183.5 0.5t-165.5 -51.5t-121 -114t-47 -179z M207 332q1 86 43 142t106 76.5t143 21t150.5 -14.5t132.5 -39v-414q-126 -32 -313 -28q-116 2 -189 70t-73 186zM272 1200q0 31 22 53.5t54 22.5t54 -22.5t22 -53.5q0 -32 -22 -54t-54 -22t-54 22t-22 54zM604 1200q0 31 22 53.5t54 22.5t54 -22.5t22 -53.5q0 -32 -22 -54 t-54 -22t-54 22t-22 54z" />
<glyph unicode="&#xe5;" d="M92 332q0 -162 105.5 -259.5t265.5 -99.5q224 -3 434 68v702q0 89 -41 158.5t-106 108.5t-148.5 55.5t-166.5 6.5t-161 -46t-131 -94l78 -74q38 49 108 78t146.5 29t146 -20.5t115 -74t45.5 -127.5v-118q-80 37 -173 51t-183.5 0.5t-165.5 -51.5t-121 -114t-47 -179z M207 332q1 86 43 142t106 76.5t143 21t150.5 -14.5t132.5 -39v-414q-126 -32 -313 -28q-116 2 -189 70t-73 186zM352 1282q0 63 48.5 110.5t115.5 47.5t114.5 -48t47.5 -112q0 -61 -48.5 -108.5t-113.5 -47.5q-67 0 -115.5 47.5t-48.5 110.5zM430 1280q0 -35 24.5 -58.5 t59.5 -23.5q38 0 62 24t24 60t-24 60t-62 24q-37 0 -60.5 -24.5t-23.5 -61.5z" />
<glyph unicode="&#xe6;" horiz-adv-x="1673" d="M84 328q0 103 46 179.5t121 115.5t165.5 53.5t183.5 0.5t172 -50v121q0 62 -32.5 110t-83.5 73t-114.5 34t-125 0t-116.5 -35.5t-87 -67.5l-78 74q63 70 162.5 107.5t199.5 37t193 -40t144 -112.5q54 73 145 111t195 38q77 0 147.5 -22t128 -63t91.5 -108t34 -151v-262 h-688v-149v-5q0 -56 24.5 -100t65.5 -70.5t91.5 -40.5t105.5 -14q92 0 166.5 36t103.5 105l102 -51q-45 -99 -148 -152t-224 -53q-94 0 -179.5 32t-140.5 93q-50 -43 -117 -73t-139 -41.5t-146 -9t-139.5 27.5t-117 65.5t-81.5 107t-30 149.5zM199 328q0 -71 32.5 -123 t83.5 -77.5t116.5 -34.5t131.5 0.5t128.5 33.5t107.5 59q-27 66 -27 136v198q-60 23 -131 37.5t-150 13t-143 -22.5t-106 -77.5t-43 -142.5zM887 569h573v164v4q0 73 -42.5 126t-105.5 76.5t-138 23.5q-74 0 -137 -23t-106 -74.5t-44 -122.5v-174z" />
<glyph unicode="&#xe7;" horiz-adv-x="905" d="M98 328v407q0 83 34.5 150.5t92 108.5t128.5 63t147 22q115 0 213 -46.5t149 -135.5l-96 -61q-34 63 -106 96t-160 33q-75 0 -138.5 -23.5t-106 -76.5t-42.5 -126v-415q0 -73 42.5 -126t106 -76.5t138.5 -23.5q99 0 177 42t101 122l105 -51q-38 -104 -134.5 -161.5 t-218.5 -63.5l-57 -90l4 -5q67 31 130.5 -11.5t60.5 -119.5q-3 -78 -60.5 -115.5t-134.5 -37.5q-82 0 -162 39l25 67q56 -30 133 -30q41 0 77 19t36 58q0 38 -35 56.5t-76.5 16.5t-69.5 -15l-26 26l90 142q-72 5 -137 28.5t-117 64.5t-82.5 105.5t-30.5 143.5z" />
<glyph unicode="&#xe8;" horiz-adv-x="1009" d="M106 317q0 -83 34.5 -150.5t92.5 -108.5t129 -63t148 -22q79 0 151 22t132 69.5t90 113.5l-103 51q-31 -69 -105.5 -105t-164.5 -36q-119 0 -203.5 59t-83.5 170v148h688v100v174q0 83 -34.5 150.5t-92 108.5t-128 63t-146.5 22q-77 0 -148 -22t-129 -63t-92.5 -108.5 t-34.5 -150.5v-422zM223 565v174v4q-1 109 83.5 167.5t203.5 58.5q75 0 138.5 -23.5t106 -76.5t42.5 -126v-4v-174h-574zM299 1360h150l143 -230h-103z" />
<glyph unicode="&#xe9;" horiz-adv-x="1009" d="M106 317v422q0 83 34.5 150.5t92.5 108.5t129 63t148 22q76 0 146.5 -22t128 -63t92 -108.5t34.5 -150.5v-174v-100h-688v-148q-1 -111 83.5 -170t203.5 -59q90 0 164.5 36t105.5 105l103 -51q-30 -66 -90 -113.5t-132 -69.5t-151 -22q-77 0 -148 22t-129 63t-92.5 108.5 t-34.5 150.5zM223 565h574v174v4q0 73 -42.5 126t-106 76.5t-138.5 23.5q-119 0 -203.5 -58.5t-83.5 -167.5v-4v-174zM422 1130l143 230h150l-191 -230h-102z" />
<glyph unicode="&#xea;" horiz-adv-x="1009" d="M106 317q0 -83 34.5 -150.5t92.5 -108.5t129 -63t148 -22q79 0 151 22t132 69.5t90 113.5l-103 51q-31 -69 -105.5 -105t-164.5 -36q-119 0 -203.5 59t-83.5 170v148h688v100v174q0 83 -34.5 150.5t-92 108.5t-128 63t-146.5 22q-77 0 -148 -22t-129 -63t-92.5 -108.5 t-34.5 -150.5v-422zM223 565v174v4q-1 109 83.5 167.5t203.5 58.5q75 0 138.5 -23.5t106 -76.5t42.5 -126v-4v-174h-574zM242 1118l198 219h129l199 -219h-121l-145 152l-137 -152h-123z" />
<glyph unicode="&#xeb;" horiz-adv-x="1009" d="M106 317q0 -83 34.5 -150.5t92.5 -108.5t129 -63t148 -22q79 0 151 22t132 69.5t90 113.5l-103 51q-31 -69 -105.5 -105t-164.5 -36q-119 0 -203.5 59t-83.5 170v148h688v100v174q0 83 -34.5 150.5t-92 108.5t-128 63t-146.5 22q-77 0 -148 -22t-129 -63t-92.5 -108.5 t-34.5 -150.5v-422zM223 565v174v4q-1 109 83.5 167.5t203.5 58.5q75 0 138.5 -23.5t106 -76.5t42.5 -126v-4v-174h-574zM266 1206q0 31 22 53.5t54 22.5t54 -22.5t22 -53.5q0 -32 -22 -54t-54 -22t-54 22t-22 54zM600 1206q0 31 22 53.5t54 22.5t54 -22.5t22 -53.5 q0 -32 -22 -54t-54 -22t-54 22t-22 54z" />
<glyph unicode="&#xec;" horiz-adv-x="491" d="M14 1288h150l143 -229h-102zM184 0v946h123v-946h-123z" />
<glyph unicode="&#xed;" horiz-adv-x="491" d="M184 0v946h123v-946h-123zM188 1059l144 229h149l-190 -229h-103z" />
<glyph unicode="&#xee;" horiz-adv-x="491" d="M-10 1055l196 221h127l199 -221h-121l-145 151l-135 -151h-121zM184 0v946h123v-946h-123z" />
<glyph unicode="&#xef;" horiz-adv-x="489" d="M41 1139q0 31 21 52t53 21q31 0 52 -21t21 -52q0 -32 -21 -53t-52 -21q-32 0 -53 21t-21 53zM184 0v946h123v-946h-123zM303 1139q0 31 21 52t53 21q31 0 52.5 -21t21.5 -52q0 -32 -21.5 -53t-52.5 -21q-32 0 -53 21t-21 53z" />
<glyph unicode="&#xf0;" horiz-adv-x="1077" d="M141 328v311q0 106 58.5 185.5t147.5 117.5t192 37q156 0 284 -64v215q0 79 -46 131.5t-122 77.5l-51 -163l-92 32l49 150q-89 6 -170 -21.5t-123 -81.5l-78 72q67 74 177.5 110t226.5 27l45 138l90 -31l-39 -125q110 -33 178 -113t68 -203v-1060q-80 -26 -113 -35 q-164 -47 -293 -47q-75 1 -143.5 23t-124 63t-88.5 107t-33 147zM254 326q0 -108 82 -167t196 -59q146 0 291 62v645q-136 59 -288 59q-73 -1 -135 -24.5t-104 -76t-42 -124.5v-2v-311v-2z" />
<glyph unicode="&#xf1;" horiz-adv-x="1089" d="M143 0h115v885q142 61 293 61q112 0 195 -59t83 -168v-719h115v719q0 82 -33.5 148t-89.5 107t-125 63t-145 24q-163 0 -408 -84v-977zM336 1159q11 60 47.5 94.5t82 34t93.5 -27.5q24 -16 48 -22.5t48 4t37 42.5l62 -29q-7 -46 -29.5 -75t-52.5 -38t-64 -4.5t-65 23.5 q-120 70 -148 -26z" />
<glyph unicode="&#xf2;" horiz-adv-x="1030" d="M113 324q0 -83 34.5 -150.5t92 -109.5t128.5 -64t148 -23q77 1 148 23t128 64t91.5 109t34.5 151v419q0 83 -34.5 150.5t-91.5 109.5t-128 64t-148 23q-77 -1 -148 -23t-128.5 -64t-92 -109.5t-34.5 -150.5v-419zM227 324v419q0 77 44.5 131t107.5 76.5t137 22.5 q73 0 135.5 -22.5t107 -76.5t44.5 -131v-419q0 -58 -25.5 -104t-67 -73t-91.5 -41t-103 -14q-74 0 -137 23t-107.5 77.5t-44.5 131.5zM301 1366h164l127 -225h-119z" />
<glyph unicode="&#xf3;" horiz-adv-x="1030" d="M113 324v419q0 83 34.5 150.5t92 109.5t128.5 64t148 23q77 -1 148 -23t128 -64t91.5 -109.5t34.5 -150.5v-419q0 -84 -34.5 -151t-91.5 -109t-128 -64t-148 -23q-77 1 -148 23t-128.5 64t-92 109.5t-34.5 150.5zM227 324q0 -77 44.5 -131.5t107.5 -77.5t137 -23 q53 0 103 14t91.5 41t67 73t25.5 104v419q0 77 -44.5 131t-107 76.5t-135.5 22.5q-74 0 -137 -22.5t-107.5 -76.5t-44.5 -131v-419zM434 1147l127 225h164l-172 -225h-119z" />
<glyph unicode="&#xf4;" horiz-adv-x="1030" d="M113 324q0 -83 34.5 -150.5t92 -109.5t128.5 -64t148 -23q77 1 148 23t128 64t91.5 109t34.5 151v419q0 83 -34.5 150.5t-91.5 109.5t-128 64t-148 23q-77 -1 -148 -23t-128.5 -64t-92 -109.5t-34.5 -150.5v-419zM227 324v419q0 77 44.5 131t107.5 76.5t137 22.5 q73 0 135.5 -22.5t107 -76.5t44.5 -131v-419q0 -58 -25.5 -104t-67 -73t-91.5 -41t-103 -14q-74 0 -137 23t-107.5 77.5t-44.5 131.5zM270 1135l191 208h123l188 -208h-115l-139 133l-129 -133h-119z" />
<glyph unicode="&#xf5;" horiz-adv-x="1030" d="M113 324q0 -83 34.5 -150.5t92 -109.5t128.5 -64t148 -23q77 1 148 23t128 64t91.5 109t34.5 151v419q0 83 -34.5 150.5t-91.5 109.5t-128 64t-148 23q-77 -1 -148 -23t-128.5 -64t-92 -109.5t-34.5 -150.5v-419zM227 324v419q0 77 44.5 131t107.5 76.5t137 22.5 q73 0 135.5 -22.5t107 -76.5t44.5 -131v-419q0 -58 -25.5 -104t-67 -73t-91.5 -41t-103 -14q-74 0 -137 23t-107.5 77.5t-44.5 131.5zM303 1176q18 94 88.5 123t140.5 -19q25 -17 50 -23.5t49.5 4.5t36.5 44l63 -29q-9 -62 -45.5 -93.5t-81 -30.5t-88.5 26q-123 73 -151 -27 z" />
<glyph unicode="&#xf6;" horiz-adv-x="1030" d="M113 324q0 -83 34.5 -150.5t92 -109.5t128.5 -64t148 -23q77 1 148 23t128 64t91.5 109t34.5 151v419q0 83 -34.5 150.5t-91.5 109.5t-128 64t-148 23q-77 -1 -148 -23t-128.5 -64t-92 -109.5t-34.5 -150.5v-419zM227 324v419q0 77 44.5 131t107.5 76.5t137 22.5 q73 0 135.5 -22.5t107 -76.5t44.5 -131v-419q0 -58 -25.5 -104t-67 -73t-91.5 -41t-103 -14q-74 0 -137 23t-107.5 77.5t-44.5 131.5zM281 1212q0 31 21 52.5t52 21.5q32 0 54 -21.5t22 -52.5q0 -32 -22 -53.5t-54 -21.5q-31 0 -52 21.5t-21 53.5zM608 1212q0 31 21.5 52.5 t52.5 21.5q32 0 54 -21.5t22 -52.5q0 -32 -22 -53.5t-54 -21.5q-31 0 -52.5 21.5t-21.5 53.5z" />
<glyph unicode="&#xf7;" horiz-adv-x="1081" d="M94 616v123h889v-123h-889zM444 350q0 44 31 73.5t74 31.5q43 0 73.5 -31t30.5 -74t-30.5 -73.5t-73.5 -30.5t-74 30.5t-31 73.5zM444 981q0 43 31 73.5t74 30.5t73.5 -30.5t30.5 -73.5t-30.5 -73.5t-73.5 -30.5t-74 30.5t-31 73.5z" />
<glyph unicode="&#xf8;" horiz-adv-x="1030" d="M113 324v419q0 83 34.5 150.5t92 109.5t128.5 64t148 23q83 -3 156 -27l63 156l99 -37l-68 -162q152 -96 152 -277v-419q0 -84 -34.5 -151t-91.5 -109t-128 -64t-148 -23q-90 3 -166 27l-57 -139l-90 37l59 145q-149 94 -149 277zM227 324q0 -103 78 -168l324 800 q-63 17 -113 17q-74 0 -137 -22.5t-107.5 -76.5t-44.5 -131v-419zM393 111q62 -19 123 -19q53 0 103 14t91.5 41t67 73t25.5 104v419q0 104 -82 166z" />
<glyph unicode="&#xf9;" horiz-adv-x="1058" d="M131 324q0 -82 33.5 -148.5t89.5 -107.5t125 -63t145 -23q129 0 293 47q35 10 115 34v998h-115v-903q-149 -64 -293 -64q-114 2 -196 60.5t-82 164.5v5v737h-115v-737zM336 1329h156l129 -209h-115z" />
<glyph unicode="&#xfa;" horiz-adv-x="1058" d="M131 324v737h115v-737v-5q0 -106 82 -164.5t196 -60.5q144 0 293 64v903h115v-998q-80 -24 -115 -34q-164 -47 -293 -47q-76 1 -145 23t-125 63t-89.5 107.5t-33.5 148.5zM430 1120l129 209h156l-170 -209h-115z" />
<glyph unicode="&#xfb;" horiz-adv-x="1058" d="M131 324q0 -82 33.5 -148.5t89.5 -107.5t125 -63t145 -23q129 0 293 47q35 10 115 34v998h-115v-903q-149 -64 -293 -64q-114 2 -196 60.5t-82 164.5v5v737h-115v-737zM283 1124l192 209h125l195 -209h-119l-141 144l-134 -144h-118z" />
<glyph unicode="&#xfc;" horiz-adv-x="1058" d="M131 324q0 -82 33.5 -148.5t89.5 -107.5t125 -63t145 -23q129 0 293 47q35 10 115 34v1000h-115v-905q-149 -64 -293 -64q-114 2 -196 60.5t-82 164.5v5v739h-115v-739zM303 1210q0 31 21.5 52.5t52.5 21.5t52.5 -21.5t21.5 -52.5q0 -32 -21.5 -53.5t-52.5 -21.5 t-52.5 21.5t-21.5 53.5zM629 1210q0 31 21 52.5t52 21.5q32 0 54 -21.5t22 -52.5q0 -32 -22 -53.5t-54 -21.5q-31 0 -52 21.5t-21 53.5z" />
<glyph unicode="&#xfd;" horiz-adv-x="1062" d="M117 338v723h119v-723v-4q-1 -110 85 -170t205 -62q157 0 299 62v897h117v-1102q0 -96 -43 -170t-111 -114t-154 -56t-171.5 -5.5t-164 46.5t-130.5 92l82 76q32 -41 88 -68t119.5 -36t129 1.5t118.5 37.5t86.5 78t33.5 118v94q-61 -39 -132.5 -53t-162.5 -16 q-79 -1 -152.5 22.5t-132 67.5t-93.5 112.5t-35 151.5zM457 1116l129 215h164l-175 -215h-118z" />
<glyph unicode="&#xfe;" horiz-adv-x="1067" d="M141 -401v1849h115v-426q142 37 295 37q61 -1 118 -14.5t108 -41t89 -67.5t60 -96t22 -123v-393q0 -107 -59 -188t-149.5 -120.5t-194.5 -38.5q-151 3 -289 66v-444h-115zM256 154q142 -60 293 -60q116 2 199.5 60t82.5 165v5v393v4q1 107 -81 165t-199 58 q-193 0 -295 -35v-755z" />
<glyph unicode="&#xff;" horiz-adv-x="1062" d="M117 338v723h119v-723v-4q-1 -110 85 -170t205 -62q157 0 299 62v897h117v-1102q0 -96 -43 -170t-111 -114t-154 -56t-171.5 -5.5t-164 46.5t-130.5 92l82 76q32 -41 88 -68t119.5 -36t129 1.5t118.5 37.5t86.5 78t33.5 118v94q-61 -39 -132.5 -53t-162.5 -16 q-79 -1 -152.5 22.5t-132 67.5t-93.5 112.5t-35 151.5zM303 1237q0 31 21.5 52.5t52.5 21.5t51.5 -21.5t20.5 -52.5t-20.5 -51.5t-51.5 -20.5t-52.5 20.5t-21.5 51.5zM625 1237q0 31 20.5 52.5t50.5 21.5q31 0 52.5 -21.5t21.5 -52.5t-20.5 -51.5t-51.5 -20.5q-73 0 -73 72z " />
<glyph unicode="&#x152;" horiz-adv-x="1964" d="M121 420v606q0 107 48.5 193t129.5 139.5t181.5 82t209.5 29.5q184 0 285 -67v45h907v-121h-786v-545h723v-120h-723v-543h786v-121h-907v35q-115 -62 -295 -58q-86 1 -167 19.5t-152 55.5t-124.5 88.5t-84.5 124t-31 157.5zM242 420q0 -90 50.5 -160t132.5 -107 t178.5 -51t195 1.5t176.5 56.5v1132q-120 61 -283 58q-87 0 -165.5 -19.5t-143.5 -57.5t-103 -102t-38 -145v-606z" />
<glyph unicode="&#x153;" horiz-adv-x="1701" d="M113 328v409q0 83 34 149.5t91 107.5t127.5 63t146.5 22q111 0 205.5 -49t136.5 -143q22 66 79.5 111.5t124.5 64.5t140 20q76 -1 146.5 -23t128 -63.5t92 -108t34.5 -149.5v-161v-101h-688v-149q0 -76 44 -130t107.5 -77t135.5 -23q91 0 165 36.5t105 105.5l103 -52 q-45 -98 -147.5 -150t-225.5 -54q-111 0 -206 47t-138 139q-43 -91 -137 -136.5t-205 -47.5q-61 1 -118 14.5t-108.5 41.5t-89.5 67.5t-60.5 95.5t-22.5 123zM227 328q0 -58 25 -103t66.5 -71.5t91 -40t102.5 -13.5q72 0 135 23t106.5 76.5t43.5 128.5v411q0 75 -44 128 t-106.5 75.5t-134.5 22.5q-53 0 -102.5 -13.5t-91 -40t-66.5 -71.5t-25 -103v-409zM911 578h574v161v2q0 73 -42.5 126.5t-106.5 77.5t-138 24q-73 0 -136 -23t-107 -77.5t-44 -131.5v-159z" />
<glyph unicode="&#x178;" horiz-adv-x="1142" d="M6 1450h141l424 -762l422 762h144l-506 -883v-567h-121v567zM281 1632q0 35 24.5 59.5t59.5 24.5t59.5 -24.5t24.5 -59.5t-24.5 -59.5t-59.5 -24.5t-59.5 24.5t-24.5 59.5zM694 1632q0 35 24.5 59.5t59.5 24.5t59.5 -24.5t24.5 -59.5t-24.5 -59.5t-59.5 -24.5t-59.5 24.5 t-24.5 59.5z" />
<glyph unicode="&#x2c6;" horiz-adv-x="536" d="M-31 1206l221 244h144l221 -244h-135l-162 168l-152 -168h-137z" />
<glyph unicode="&#x2dc;" horiz-adv-x="555" d="M23 1307q20 94 101.5 123t164.5 -19q20 -12 42 -19t44 -6.5t41 13t30 37.5l74 -29q-12 -62 -54.5 -93.5t-94.5 -30.5t-103 26q-143 74 -176 -27z" />
<glyph unicode="&#x2000;" horiz-adv-x="944" />
<glyph unicode="&#x2001;" horiz-adv-x="1888" />
<glyph unicode="&#x2002;" horiz-adv-x="944" />
<glyph unicode="&#x2003;" horiz-adv-x="1888" />
<glyph unicode="&#x2004;" horiz-adv-x="629" />
<glyph unicode="&#x2005;" horiz-adv-x="472" />
<glyph unicode="&#x2006;" horiz-adv-x="314" />
<glyph unicode="&#x2007;" horiz-adv-x="314" />
<glyph unicode="&#x2008;" horiz-adv-x="236" />
<glyph unicode="&#x2009;" horiz-adv-x="377" />
<glyph unicode="&#x200a;" horiz-adv-x="104" />
<glyph unicode="&#x2010;" horiz-adv-x="681" d="M88 555v119h506v-119h-506z" />
<glyph unicode="&#x2011;" horiz-adv-x="681" d="M88 555v119h506v-119h-506z" />
<glyph unicode="&#x2012;" horiz-adv-x="681" d="M88 555v119h506v-119h-506z" />
<glyph unicode="&#x2013;" horiz-adv-x="1024" d="M39 555v117h950v-117h-950z" />
<glyph unicode="&#x2014;" horiz-adv-x="1884" d="M25 555v117h1835v-117h-1835z" />
<glyph unicode="&#x2018;" horiz-adv-x="448" d="M98 983l156 467h123l-131 -467h-148z" />
<glyph unicode="&#x2019;" horiz-adv-x="466" d="M94 983l129 467h150l-158 -467h-121z" />
<glyph unicode="&#x201a;" horiz-adv-x="499" d="M94 -283l129 437h150l-158 -437h-121z" />
<glyph unicode="&#x201c;" horiz-adv-x="802" d="M117 983l157 467h121l-129 -467h-149zM430 983l158 467h121l-129 -467h-150z" />
<glyph unicode="&#x201d;" horiz-adv-x="886" d="M145 983l129 467h150l-158 -467h-121zM453 983l129 467h149l-158 -467h-120z" />
<glyph unicode="&#x201e;" horiz-adv-x="964" d="M168 -283l129 428h149l-157 -428h-121zM504 -283l129 428h149l-157 -428h-121z" />
<glyph unicode="&#x2022;" horiz-adv-x="876" d="M131 725q0 123 87 210t210 87t210 -87t87 -210t-87 -210t-210 -87t-210 87t-87 210z" />
<glyph unicode="&#x2026;" horiz-adv-x="1437" d="M180 86q0 41 29 69.5t70 28.5t69.5 -28.5t28.5 -69.5t-28.5 -69.5t-69.5 -28.5t-70 28.5t-29 69.5zM608 86q0 41 29 69.5t70 28.5t69.5 -28.5t28.5 -69.5t-28.5 -69.5t-69.5 -28.5t-70 28.5t-29 69.5zM1034 86q0 41 29 69.5t70 28.5t69.5 -28.5t28.5 -69.5t-28.5 -69.5 t-69.5 -28.5t-70 28.5t-29 69.5z" />
<glyph unicode="&#x202f;" horiz-adv-x="377" />
<glyph unicode="&#x2039;" horiz-adv-x="530" d="M72 604l280 416l99 -59l-244 -357l244 -356l-99 -60z" />
<glyph unicode="&#x203a;" horiz-adv-x="532" d="M80 248l244 356l-244 357l98 59l281 -416l-281 -416z" />
<glyph unicode="&#x205f;" horiz-adv-x="472" />
<glyph unicode="&#x20ac;" horiz-adv-x="1191" d="M39 578l20 90h115v110h-129l21 92h108v156q0 94 33.5 172.5t89.5 132t130 88.5t154.5 46.5t164.5 1.5t157.5 -41t135.5 -87t98 -131l-109 -55q-37 75 -107.5 123.5t-151.5 64.5t-166 3t-153.5 -51.5t-112.5 -108t-44 -158.5v-156h555l-21 -92h-534v-110h557l-19 -90h-538 v-156q0 -92 44.5 -162.5t113.5 -107.5t154.5 -48t166.5 6t150.5 65t105.5 120l109 -53q-36 -74 -97.5 -130t-135.5 -87.5t-157.5 -42.5t-164 0t-155 45.5t-130.5 87t-89.5 132.5t-33.5 175v156h-135z" />
<glyph unicode="&#x2122;" horiz-adv-x="1697" d="M39 1352v100h639v-100h-266v-699h-107v699h-266zM778 653v799h123l260 -571l260 571h125v-799h-108l8 623l-240 -526h-90l-235 518l4 -615h-107z" />
<glyph unicode="&#x25fc;" horiz-adv-x="1064" d="M0 0v1065h1065v-1065h-1065z" />
</font>
</defs>
</svg>
